# xmcd CD database file
#
# Track frame offsets:
#	150
#	9427
#	27242
#	46603
#	78268
#	97980
#	130330
#	166248
#	203818
#	224779
#	253703
#	279831
#
# Disc length: 4255 seconds
#
# Revision: 0
# Processed by: cddbd v1.5.2PL0 Copyright (c) Steve Scherf et al.
# Submitted via: CDex 1.70beta2
#
DISCID=98109d0c
DTITLE=Alessandro Lanzoni - Ares Tavolazzi - I Should Care
DYEAR=2006
DGENRE=Jazz
TTITLE0=I love you (C.Porter)
TTITLE1=I got it bad (D.Ellington)
TTITLE2=Scrapple from the apple (C.Parker)
TTITLE3=Here's that rainy day (J.Van Heusen)
TTITLE4=Someday my prince will come (L.Morey)
TTITLE5=I should care (S.Cahn)
TTITLE6=Caravan (J.Tizol)
TTITLE7=Stella by starlight (V.Young)
TTITLE8=My romance (R.Rodgers)
TTITLE9=Here's that rainy day (J.Van Heusen) alternate
TTITLE10=I should care (S.Cahn) alternate
TTITLE11=Just friends (S.Lewis) (Guest: F.Cafiso)
EXTD=YEAR: 2006
EXTT0=
EXTT1=
EXTT2=
EXTT3=
EXTT4=
EXTT5=
EXTT6=
EXTT7=
EXTT8=
EXTT9=
EXTT10=
EXTT11=
PLAYORDER=
